<svg width="1398" height="46" viewBox="0 0 1398 46" fill="none" xmlns="http://www.w3.org/2000/svg">
<rect x="169" y="12" width="1060" height="13" fill="#0CBAFF"/>
<rect x="643" width="111" height="19" fill="#0CBAFF"/>
<path d="M642.5 0L648.995 12H636.005L642.5 0Z" fill="#0CBAFF"/>
<path d="M754.5 0L760.995 12H748.005L754.5 0Z" fill="#0CBAFF"/>
<rect x="145" y="31.5664" width="31" height="16.4267" transform="rotate(-39.137 145 31.5664)" fill="#0CBAFF"/>
<rect width="31.5692" height="16.3289" transform="matrix(-0.775639 -0.631177 -0.631177 0.775639 1253 32)" fill="#0CBAFF"/>
<path d="M0 31H154C155.105 31 156 31.8954 156 33V43C156 44.1046 155.105 45 154 45H14C6.26802 45 0 38.732 0 31V31Z" fill="#0CBAFF"/>
<path d="M1398 32H1244C1242.9 32 1242 32.8954 1242 34V43C1242 44.6569 1243.34 46 1245 46H1384C1391.73 46 1398 39.732 1398 32V32Z" fill="#0CBAFF"/>
</svg>
