<svg width="130" height="192" viewBox="0 0 130 192" fill="none" xmlns="http://www.w3.org/2000/svg">
<path d="M71 108.084L120.023 106.66" stroke="#0CBAFF" stroke-width="2"/>
<path d="M10.5 0L10.9336 6.20273L12.7572 0.233794L11.7806 6.38029L14.9088 0.924246L12.5677 6.7271L16.8543 2.03907L13.2581 7.22694L18.5027 3.52614L13.8196 7.85646L19.7769 5.31592L14.2258 8.5862L20.6173 7.32472L14.4578 9.38205L20.9846 9.45861L14.5048 10.2068L20.8617 11.6178L14.3645 11.0219L20.2543 13.7014L14.0435 11.7892L19.1907 15.6119L13.5568 12.4728L17.7208 17.26L12.9271 13.0408L15.9133 18.5686L12.184 13.4666L13.8527 19.4765L11.3622 13.7304L11.6353 19.9414L10.5 13.8197L9.36475 19.9414L9.63783 13.7304L7.14733 19.4765L8.81597 13.4666L5.08668 18.5686L8.07286 13.0408L3.27916 17.26L7.44324 12.4728L1.80927 15.6119L6.95655 11.7892L0.745745 13.7014L6.63554 11.0219L0.138322 11.6178L6.49524 10.2068L0.015399 9.45861L6.54219 9.38205L0.382725 7.32472L6.77421 8.5862L1.22312 5.31592L7.18043 7.85646L2.4973 3.52614L7.74188 7.22694L4.14567 2.03907L8.4323 6.7271L6.09116 0.924246L9.2194 6.38029L8.24281 0.233794L10.0664 6.20273L10.5 0Z" fill="#0CBAFF"/>
<path d="M44 179L44.2891 183.032L45.5048 179.152L44.8537 183.147L46.9392 179.601L45.3785 183.373L48.2362 180.325L45.8387 183.698L49.3351 181.292L46.213 184.107L50.1846 182.455L46.4839 184.581L50.7449 183.761L46.6385 185.098L50.9897 185.148L46.6698 185.634L50.9078 186.552L46.5763 186.164L50.5028 187.906L46.3623 186.663L49.7938 189.148L46.0378 187.107L48.8139 190.219L45.6181 187.477L47.6089 191.07L45.1227 187.753L46.2351 191.66L44.5748 187.925L44.7568 191.962L44 187.983L43.2432 191.962L43.4252 187.925L41.7649 191.66L42.8773 187.753L40.3911 191.07L42.3819 187.477L39.1861 190.219L41.9622 187.107L38.2062 189.148L41.6377 186.663L37.4972 187.906L41.4237 186.164L37.0922 186.552L41.3302 185.634L37.0103 185.148L41.3615 185.098L37.2551 183.761L41.5161 184.581L37.8154 182.455L41.787 184.107L38.6649 181.292L42.1613 183.698L39.7638 180.325L42.6215 183.373L41.0608 179.601L43.1463 183.147L42.4952 179.152L43.7109 183.032L44 179Z" fill="#0CBAFF"/>
<path d="M114.854 97.4475L116.88 102.664L116.867 97.0446L117.659 102.59L118.91 97.0625L118.431 102.678L120.889 97.5004L119.161 102.923L122.709 98.3379L119.814 103.314L124.287 99.5357L120.359 103.833L125.548 101.038L120.772 104.455L126.433 102.774L121.032 105.151L126.902 104.664L121.127 105.89L126.931 106.617L121.054 106.635L126.52 108.544L120.815 107.353L125.689 110.355L120.422 108.01L124.475 111.963L119.894 108.575L122.935 113.295L119.253 109.021L121.142 114.288L118.532 109.329L119.18 114.896L117.763 109.483L117.14 115.089L116.983 109.476L115.117 114.86L116.227 109.309L113.207 114.219L115.532 108.989L111.498 113.195L114.929 108.531L110.07 111.837L114.447 107.957L108.99 110.208L114.109 107.294L108.31 108.385L113.93 106.573L108.059 106.452L113.919 105.826L108.251 104.5L114.076 105.09L108.876 102.62L114.394 104.399L109.905 100.901L114.857 103.784L111.289 99.4217L115.445 103.276L112.965 98.2524L116.13 102.896L114.854 97.4475Z" fill="#0CBAFF"/>
<path d="M71.398 103.1L71.6842 106.518L72.5608 103.207L72.1214 106.608L73.674 103.568L72.5296 106.792L74.6855 104.164L72.8896 107.061L75.5481 104.969L73.1847 107.403L76.2214 105.945L73.401 107.802L76.674 107.045L73.5284 108.239L76.8846 108.219L73.5609 108.693L76.8434 109.411L73.4971 109.144L76.5524 110.567L73.3399 109.571L76.0251 111.631L73.0967 109.952L75.2863 112.554L72.7788 110.272L74.3704 113.293L72.4011 110.514L73.3203 113.814L71.9813 110.667L72.185 114.091L71.539 110.725L71.0178 114.113L71.0948 110.683L69.8731 113.877L70.6696 110.546L68.8044 113.396L70.2832 110.318L67.8619 112.691L69.9538 110.01L67.0894 111.796L69.6966 109.638L66.5231 110.752L69.5237 109.218L66.1896 109.608L69.4433 108.769L66.1044 108.418L69.459 108.314L66.2715 107.237L69.5702 107.873L66.683 106.121L69.7716 107.466L67.3198 105.121L70.0538 107.113L68.1521 104.285L70.4036 106.831L69.1409 103.652L70.8047 106.632L70.24 103.25L71.2383 106.526L71.398 103.1Z" fill="#0CBAFF"/>
<path d="M31.398 86.0998L31.6842 89.5179L32.5608 86.2074L32.1214 89.6079L33.674 86.5679L32.5296 89.7917L34.6855 87.1645L32.8896 90.0609L35.5481 87.9693L33.1847 90.4029L36.2214 88.9446L33.401 90.8017L36.674 90.0449L33.5284 91.2386L36.8846 91.2188L33.5609 91.6932L36.8434 92.4112L33.4971 92.1442L36.5524 93.5666L33.3399 92.5706L36.0251 94.6307L33.0967 92.9524L35.2863 95.554L32.7788 93.2718L34.3704 96.2932L32.4011 93.5138L33.3203 96.8137L31.9813 93.6671L32.185 97.0913L31.539 93.7245L31.0178 97.1129L31.0948 93.6835L29.8731 96.8775L30.6696 93.5458L28.8044 96.3961L30.2832 93.3179L27.8619 95.6913L29.9538 93.0105L27.0894 94.796L29.6966 92.6379L26.5231 93.752L29.5237 92.2176L26.1896 92.6082L29.4433 91.7693L26.1044 91.4181L29.459 91.3138L26.2715 90.2373L29.5702 90.8725L26.683 89.121L29.7716 90.466L27.3198 88.1214L30.0538 90.1134L28.1521 87.2853L30.4036 89.831L29.1409 86.6517L30.8047 89.6322L30.24 86.2503L31.2383 89.5262L31.398 86.0998Z" fill="#0CBAFF"/>
<path d="M10.1466 9.16388L31.2964 92.5496L71.9573 109.124L44.1347 185.164" stroke="#0CBAFF" stroke-width="2"/>
</svg>
