<svg width="113" height="170" viewBox="0 0 113 170" fill="none" xmlns="http://www.w3.org/2000/svg">
<path d="M67.9058 41.024L90.0828 52.5644L91.177 77.5404L70.0942 90.976L47.9172 79.4356L46.823 54.4596L67.9058 41.024Z" fill="#0CBAFF"/>
<path d="M3.47853 144.343L18.5 136.139L33.5215 144.343V160.657L18.5 168.861L3.47853 160.657V144.343Z" stroke="#0CBAFF" stroke-width="2"/>
<path d="M66.3549 74.6019L26 140" stroke="#0CBAFF" stroke-width="2"/>
<circle cx="18.5" cy="152.5" r="7.5" fill="#0CBAFF"/>
<path d="M72.5 52L51.5 12H113" stroke="#0CBAFF" stroke-width="2"/>
<g filter="url(#filter0_d_2_81)">
<path d="M51.5 4L51.9481 8.67052L53.8176 4.36708L52.8006 8.94749L55.9084 5.43237L53.5257 9.47432L57.5676 7.09161L54.0525 10.1994L58.6329 9.18237L54.3295 11.0519L59 11.5L54.3295 11.9481L58.6329 13.8176L54.0525 12.8006L57.5676 15.9084L53.5257 13.5257L55.9084 17.5676L52.8006 14.0525L53.8176 18.6329L51.9481 14.3295L51.5 19L51.0519 14.3295L49.1824 18.6329L50.1994 14.0525L47.0916 17.5676L49.4743 13.5257L45.4324 15.9084L48.9475 12.8006L44.3671 13.8176L48.6705 11.9481L44 11.5L48.6705 11.0519L44.3671 9.18237L48.9475 10.1994L45.4324 7.09161L49.4743 9.47432L47.0916 5.43237L50.1994 8.94749L49.1824 4.36708L51.0519 8.67052L51.5 4Z" fill="#0CBAFF"/>
</g>
<defs>
<filter id="filter0_d_2_81" x="40" y="0" width="23" height="23" filterUnits="userSpaceOnUse" color-interpolation-filters="sRGB">
<feFlood flood-opacity="0" result="BackgroundImageFix"/>
<feColorMatrix in="SourceAlpha" type="matrix" values="0 0 0 0 0 0 0 0 0 0 0 0 0 0 0 0 0 0 127 0" result="hardAlpha"/>
<feOffset/>
<feGaussianBlur stdDeviation="2"/>
<feComposite in2="hardAlpha" operator="out"/>
<feColorMatrix type="matrix" values="0 0 0 0 0.046154 0 0 0 0 0.729744 0 0 0 0 1 0 0 0 1 0"/>
<feBlend mode="normal" in2="BackgroundImageFix" result="effect1_dropShadow_2_81"/>
<feBlend mode="normal" in="SourceGraphic" in2="effect1_dropShadow_2_81" result="shape"/>
</filter>
</defs>
</svg>
