<svg width="155" height="122" viewBox="0 0 155 122" fill="none" xmlns="http://www.w3.org/2000/svg">
<path d="M6.76588 13.7742L29.5238 3.27957L41.2103 19.6774L36.2897 47.8817M36.2897 47.8817L4.92064 75.4301L12.3016 101.011L58.4325 108.226L108.254 113.473H146.389L119.94 79.3656L36.2897 47.8817Z" stroke="#0CBAFF" stroke-width="2"/>
<path d="M36.2897 34.1075L36.8231 42.2444L39.0664 34.4142L37.865 42.4774L41.7133 35.32L38.8333 42.9323L44.1065 36.7824L39.6826 43.588L46.1343 38.7332L40.3733 44.4138L47.7017 41.0811L40.873 45.3711L48.7355 43.7163L41.1584 46.4151L49.1874 46.5156L41.2162 47.4971L49.0362 49.3481L41.0436 48.5663L48.289 52.0814L40.6487 49.5729L46.9807 54.5876L40.05 50.4697L45.1725 56.7496L39.2754 51.2148L42.9489 58.4663L38.3613 51.7734L40.414 59.6574L37.3503 52.1194L37.6862 60.2672L36.2897 52.2365L34.8931 60.2672L35.2291 52.1194L32.1654 59.6574L34.2181 51.7734L29.6304 58.4663L33.3039 51.2148L27.4069 56.7496L32.5294 50.4697L25.5987 54.5876L31.9307 49.5729L24.2904 52.0814L31.5358 48.5663L23.5432 49.3481L31.3632 47.4971L23.392 46.5156L31.4209 46.4151L23.8438 43.7163L31.7064 45.3711L24.8777 41.0811L32.2061 44.4138L26.4451 38.7332L32.8968 43.588L28.4728 36.7824L33.7461 42.9323L30.8661 35.32L34.7143 42.4774L33.513 34.4142L35.7563 42.2444L36.2897 34.1075Z" fill="#0CBAFF"/>
<path d="M11.6865 91.8279L12.0675 97.5238L13.6699 92.0426L12.8118 97.6868L15.5605 92.6767L13.5034 98.0053L17.27 93.7004L14.11 98.4643L18.7184 95.0659L14.6034 99.0424L19.838 96.7094L14.9603 99.7125L20.5764 98.5541L15.1642 100.443L20.8992 100.514L15.2054 101.201L20.7912 102.496L15.0821 101.949L20.2574 104.41L14.8001 102.654L19.3229 106.164L14.3724 103.281L18.0313 107.677L13.8192 103.803L16.4431 108.879L13.1662 104.194L14.6324 109.713L12.4441 104.436L12.684 110.14L11.6865 104.518L10.689 110.14L10.9289 104.436L8.74057 109.713L10.2068 104.194L6.9299 108.879L9.55381 103.803L5.34166 107.677L9.00057 103.281L4.05009 106.164L8.57293 102.654L3.11559 104.41L8.29086 101.949L2.58185 102.496L8.16758 101.201L2.47384 100.514L8.20884 100.443L2.79661 98.5541L8.4127 99.7125L3.53505 96.7094L8.76965 99.0424L4.65465 95.0659L9.26299 98.4643L6.10305 93.7004L9.86964 98.0053L7.81253 92.6767L10.5613 97.6868L9.70314 92.0426L11.3055 97.5238L11.6865 91.8279Z" fill="#0CBAFF"/>
<path d="M120.556 76.0861L120.708 78.5271L121.349 76.1781L121.006 78.597L122.105 76.4498L121.282 78.7335L122.789 76.8885L121.525 78.9302L123.368 77.4738L121.722 79.178L123.816 78.1781L121.865 79.4651L124.111 78.9687L121.947 79.7783L124.241 79.8085L121.963 80.1029L124.197 80.6582L121.914 80.4237L123.984 81.4782L121.801 80.7257L123.61 82.2301L121.63 80.9947L123.093 82.8787L121.409 81.2182L122.458 83.3937L121.147 81.3858L121.734 83.751L120.859 81.4896L120.955 83.934L120.556 81.5248L120.157 83.934L120.252 81.4896L119.377 83.751L119.964 81.3858L118.653 83.3937L119.702 81.2182L118.018 82.8787L119.481 80.9947L117.501 82.2301L119.31 80.7257L117.127 81.4782L119.197 80.4237L116.914 80.6582L119.148 80.1029L116.87 79.8085L119.164 79.7783L117 78.9687L119.246 79.4651L117.295 78.1781L119.389 79.178L117.743 77.4738L119.586 78.9302L118.322 76.8885L119.829 78.7335L119.006 76.4498L120.105 78.597L119.762 76.1781L120.403 78.5271L120.556 76.0861Z" fill="#0CBAFF"/>
<path d="M105.794 108.882L105.946 111.73L106.587 108.989L106.244 111.811L107.343 109.306L106.52 111.97L108.027 109.818L106.763 112.2L108.606 110.501L106.96 112.489L109.054 111.322L107.103 112.824L109.35 112.245L107.185 113.189L109.479 113.225L107.201 113.568L109.435 114.216L107.152 113.942L109.222 115.173L107.039 114.295L108.848 116.05L106.868 114.608L108.332 116.806L106.647 114.869L107.696 117.407L106.386 115.065L106.972 117.824L106.097 115.186L106.193 118.038L105.794 115.227L105.395 118.038L105.491 115.186L104.615 117.824L105.202 115.065L103.891 117.407L104.941 114.869L103.256 116.806L104.719 114.608L102.739 116.05L104.548 114.295L102.365 115.173L104.435 113.942L102.152 114.216L104.386 113.568L102.109 113.225L104.403 113.189L102.238 112.245L104.484 112.824L102.533 111.322L104.627 112.489L102.981 110.501L104.824 112.2L103.56 109.818L105.067 111.97L104.244 109.306L105.344 111.811L105 108.989L105.641 111.73L105.794 108.882Z" fill="#0CBAFF"/>
<path d="M145.774 101.011L146.155 107.52L147.757 101.256L146.899 107.707L149.648 101.981L147.591 108.071L151.357 103.151L148.197 108.595L152.806 104.711L148.691 109.256L153.925 106.59L149.048 110.022L154.664 108.698L149.251 110.857L154.986 110.937L149.293 111.722L154.878 113.203L149.169 112.578L154.345 115.39L148.887 113.383L153.41 117.395L148.46 114.1L152.119 119.124L147.906 114.697L150.53 120.498L147.254 115.143L148.72 121.451L146.531 115.42L146.771 121.938L145.774 115.514L144.776 121.938L145.016 115.42L142.828 121.451L144.294 115.143L141.017 120.498L143.641 114.697L139.429 119.124L143.088 114.1L138.137 117.395L142.66 113.383L137.203 115.39L142.378 112.578L136.669 113.203L142.255 111.722L136.561 110.937L142.296 110.857L136.884 108.698L142.5 110.022L137.622 106.59L142.857 109.256L138.742 104.711L143.35 108.595L140.19 103.151L143.957 108.071L141.9 101.981L144.649 107.707L143.79 101.256L145.393 107.52L145.774 101.011Z" fill="#0CBAFF"/>
<path d="M4.92064 72.1505L5.07305 74.5916L5.71398 72.2426L5.37074 74.6615L6.47023 72.5143L5.64738 74.798L7.15402 72.953L5.89005 74.9947L7.73338 73.5382L6.08738 75.2424L8.18122 74.2426L6.23016 75.5296L8.4766 75.0332L6.31171 75.8428L8.6057 75.873L6.32821 76.1674L8.5625 76.7227L6.2789 76.4882L8.34901 77.5427L6.16607 76.7901L7.97521 78.2946L5.99501 77.0592L7.45858 78.9432L5.77372 77.2827L6.82328 79.4582L5.51253 77.4503L6.09901 79.8155L5.22367 77.5541L5.31965 79.9984L4.92064 77.5892L4.52163 79.9984L4.61761 77.5541L3.74227 79.8155L4.32875 77.4503L3.018 79.4582L4.06756 77.2827L2.3827 78.9432L3.84627 77.0592L1.86607 78.2946L3.67521 76.7901L1.49227 77.5427L3.56238 76.4882L1.27878 76.7227L3.51307 76.1674L1.23558 75.873L3.52957 75.8428L1.36468 75.0332L3.61112 75.5296L1.66006 74.2426L3.7539 75.2424L2.1079 73.5382L3.95123 74.9947L2.68726 72.953L4.1939 74.798L3.37105 72.5143L4.47054 74.6615L4.1273 72.2426L4.76823 74.5916L4.92064 72.1505Z" fill="#0CBAFF"/>
<path d="M6.15079 7.87097L6.40481 11.9394L7.47303 8.02432L6.90096 12.0559L8.73344 8.4772L7.36203 12.2834L9.8731 9.20843L7.76647 12.6112L10.8387 10.1838L8.09536 13.0241L11.5851 11.3578L8.33333 13.5028L12.0774 12.6754L8.46924 14.0248L12.2926 14.075L8.49674 14.5657L12.2206 15.4913L8.41455 15.1004L11.8647 16.8579L8.22651 15.6036L11.2417 18.111L7.94141 16.0521L10.3807 19.192L7.57259 16.4246L9.32186 20.0504L7.13728 16.7039L8.11475 20.6459L6.65584 16.8769L6.81581 20.9508L6.15079 16.9355L5.48578 20.9508L5.64574 16.8769L4.18684 20.6459L5.16431 16.7039L2.97973 20.0504L4.729 16.4246L1.9209 19.192L4.36017 16.0521L1.05985 18.111L4.07508 15.6036L0.43685 16.8579L3.88703 15.1004L0.0810275 15.4913L3.80485 14.5657L0.00902081 14.075L3.83235 14.0248L0.224196 12.6754L3.96826 13.5028L0.716493 11.3578L4.20623 13.0241L1.46289 10.1838L4.53512 12.6112L2.42849 9.20843L4.93955 12.2834L3.56814 8.4772L5.40063 12.0559L4.82855 8.02432L5.89678 11.9394L6.15079 7.87097Z" fill="#0CBAFF"/>
<path d="M29.5238 0L29.6254 1.62738L30.0527 0.0613396L29.8239 1.67397L30.5569 0.24249L30.0083 1.76496L31.0127 0.534982L30.1701 1.8961L31.399 0.925137L30.3017 2.06126L31.6975 1.39471L30.3968 2.25272L31.8945 1.92175L30.4512 2.46153L31.9805 2.48161L30.4622 2.67791L31.9517 3.04812L30.4293 2.89176L31.8094 3.59477L30.3541 3.09307L31.5602 4.09602L30.2401 3.27243L31.2158 4.52842L30.0925 3.42146L30.7923 4.87175L29.9184 3.53318L30.3094 5.10997L29.7258 3.60237L29.7898 5.23193L29.5238 3.6258L29.2578 5.23193L29.3218 3.60237L28.7382 5.10997L29.1292 3.53318L28.2554 4.87175L28.9551 3.42146L27.8319 4.52842L28.8076 3.27243L27.4874 4.09602L28.6935 3.09307L27.2382 3.59477L28.6183 2.89176L27.0959 3.04812L28.5854 2.67791L27.0671 2.48161L28.5964 2.46153L27.1532 1.92175L28.6508 2.25272L27.3501 1.39471L28.746 2.06126L27.6487 0.925137L28.8776 1.8961L28.0349 0.534982L29.0393 1.76496L28.4908 0.24249L29.2238 1.67397L28.9949 0.0613396L29.4222 1.62738L29.5238 0Z" fill="#0CBAFF"/>
<path d="M40.5952 14.4301L40.7984 17.6849L41.653 14.5528L41.1954 17.778L42.6613 14.9151L41.5642 17.96L43.5731 15.5001L41.8878 18.2223L44.3455 16.2804L42.1509 18.5526L44.9427 17.2195L42.3413 18.9356L45.3365 18.2736L42.45 19.3532L45.5086 19.3933L42.472 19.7859L45.451 20.5263L42.4062 20.2136L45.1664 21.6197L42.2558 20.6163L44.668 22.6221L42.0277 20.975L43.9791 23.487L41.7327 21.273L43.1321 24.1736L41.3844 21.4965L42.1664 24.6501L40.9993 21.6349L41.1272 24.894L40.5952 21.6817L40.0632 24.894L40.1912 21.6349L39.0241 24.6501L39.806 21.4965L38.0584 24.1736L39.4578 21.273L37.2113 23.487L39.1627 20.975L36.5225 22.6221L38.9347 20.6163L36.0241 21.6197L38.7842 20.2136L35.7394 20.5263L38.7185 19.7859L35.6818 19.3933L38.7405 19.3532L35.8539 18.2736L38.8492 18.9356L36.2478 17.2195L39.0396 18.5526L36.8449 16.2804L39.3027 18.2223L37.6174 15.5001L39.6262 17.96L38.5291 14.9151L39.9951 17.778L39.5374 14.5528L40.392 17.6849L40.5952 14.4301Z" fill="#0CBAFF"/>
</svg>
