<svg width="261" height="74" viewBox="0 0 261 74" fill="none" xmlns="http://www.w3.org/2000/svg">
<path d="M36.224 47.072L36.2 44.72H42.68C42.904 44.72 43.016 44.616 43.016 44.408V41.024C43.016 40.8 42.904 40.688 42.68 40.688H39.776C38.4 40.688 37.416 40.44 36.824 39.944C36.248 39.432 35.96 38.536 35.96 37.256V35.672C35.96 34.344 36.264 33.416 36.872 32.888C37.496 32.344 38.488 32.08 39.848 32.096H45.128V34.544L39.224 34.52C39.016 34.52 38.912 34.632 38.912 34.856V38.072C38.912 38.296 39.016 38.408 39.224 38.408H42.104C43.48 38.408 44.456 38.656 45.032 39.152C45.608 39.632 45.896 40.52 45.896 41.816V43.832C45.896 45.048 45.616 45.896 45.056 46.376C44.512 46.84 43.632 47.072 42.416 47.072H36.224ZM52.0741 47.168C50.6181 47.168 49.5621 46.888 48.9061 46.328C48.2661 45.768 47.9461 44.824 47.9461 43.496V35.6C47.9461 34.272 48.2261 33.36 48.7861 32.864C49.3461 32.352 50.3061 32.096 51.6661 32.096H54.6181C55.9941 32.096 56.9701 32.352 57.5461 32.864C58.1381 33.36 58.4341 34.272 58.4341 35.6V41.336H50.8741V44.408C50.8741 44.616 50.9781 44.72 51.1861 44.72H58.0501V47.168H52.0741ZM51.1861 34.448C50.9781 34.448 50.8741 34.56 50.8741 34.784V39.224H55.5301V34.784C55.5301 34.56 55.4261 34.448 55.2181 34.448H51.1861ZM68.3454 34.592H64.9134V44.24C64.9134 44.448 65.0174 44.552 65.2254 44.552H68.3454V47H66.1134C64.6734 47 63.6254 46.72 62.9694 46.16C62.3294 45.6 62.0094 44.664 62.0094 43.352V34.592H60.2814V32.312H62.0094V28.568H64.9134V32.312H68.3454V34.592ZM77.4157 34.592H73.9837V44.24C73.9837 44.448 74.0877 44.552 74.2957 44.552H77.4157V47H75.1837C73.7437 47 72.6957 46.72 72.0397 46.16C71.3997 45.6 71.0797 44.664 71.0797 43.352V34.592H69.3517V32.312H71.0797V28.568H73.9837V32.312H77.4157V34.592ZM79.4585 29.696V27.008H82.3865V29.696H79.4585ZM79.4585 47V32.312H82.3865V47H79.4585ZM93.0971 32.096C94.2971 32.096 95.1771 32.336 95.7371 32.816C96.2971 33.296 96.5771 34.144 96.5771 35.36V47H93.6731V34.784C93.6731 34.56 93.5691 34.448 93.3611 34.448H89.1611C88.9371 34.448 88.8251 34.56 88.8251 34.784L88.8491 47H85.9691L85.9211 32.312H88.5131L88.7291 33.8C89.0491 32.664 89.9371 32.096 91.3931 32.096H93.0971ZM107.001 50.144V45.608C106.841 46.152 106.553 46.56 106.137 46.832C105.721 47.088 105.153 47.216 104.433 47.216H102.753C101.553 47.216 100.673 46.984 100.113 46.52C99.5691 46.04 99.2971 45.192 99.2971 43.976V35.648C99.2971 34.368 99.5851 33.472 100.161 32.96C100.753 32.448 101.729 32.208 103.089 32.24L109.929 32.312V49.256C109.929 50.584 109.601 51.528 108.945 52.088C108.305 52.648 107.265 52.928 105.825 52.928H99.7531V50.48H106.689C106.897 50.48 107.001 50.368 107.001 50.144ZM102.489 44.864H106.689C106.897 44.864 107.001 44.752 107.001 44.528V34.688L102.489 34.664C102.281 34.664 102.177 34.768 102.177 34.976V44.528C102.177 44.752 102.281 44.864 102.489 44.864ZM112.49 47.072L112.466 44.72H118.946C119.17 44.72 119.282 44.616 119.282 44.408V41.024C119.282 40.8 119.17 40.688 118.946 40.688H116.042C114.666 40.688 113.682 40.44 113.09 39.944C112.514 39.432 112.226 38.536 112.226 37.256V35.672C112.226 34.344 112.53 33.416 113.138 32.888C113.762 32.344 114.754 32.08 116.114 32.096H121.394V34.544L115.49 34.52C115.282 34.52 115.178 34.632 115.178 34.856V38.072C115.178 38.296 115.282 38.408 115.49 38.408H118.37C119.746 38.408 120.722 38.656 121.298 39.152C121.874 39.632 122.162 40.52 122.162 41.816V43.832C122.162 45.048 121.882 45.896 121.322 46.376C120.778 46.84 119.898 47.072 118.682 47.072H112.49ZM141.117 26.792L131.757 49.88H128.901L138.333 26.792H141.117ZM159.632 26.792L150.272 49.88H147.416L156.848 26.792H159.632ZM178.148 26.792L168.788 49.88H165.932L175.364 26.792H178.148ZM196.664 26.792L187.304 49.88H184.448L193.88 26.792H196.664Z" fill="#0CBAFF"/>
<path d="M2 72L3.00982 2H202.45L259 26.9565V72H2Z" fill="white" fill-opacity="0.08" stroke="#0CBAFF" stroke-width="2.5"/>
</svg>
