<svg width="1398" height="46" viewBox="0 0 1398 46" fill="none" xmlns="http://www.w3.org/2000/svg">
<rect width="1060" height="13" transform="matrix(1 0 0 -1 169 34)" fill="#0CBAFF"/>
<rect width="111" height="19" transform="matrix(1 0 0 -1 643 46)" fill="#0CBAFF"/>
<path d="M642.5 46L648.995 34H636.005L642.5 46Z" fill="#0CBAFF"/>
<path d="M754.5 46L760.995 34H748.005L754.5 46Z" fill="#0CBAFF"/>
<rect width="31" height="16.4267" transform="matrix(0.775639 0.631177 0.631177 -0.775639 145 14.4335)" fill="#0CBAFF"/>
<rect x="1253" y="14" width="31.5692" height="16.3289" transform="rotate(140.863 1253 14)" fill="#0CBAFF"/>
<path d="M0 15H154C155.105 15 156 14.1046 156 13V3C156 1.89543 155.105 1 154 1H14C6.26802 1 0 7.26801 0 15V15Z" fill="#0CBAFF"/>
<path d="M1398 14H1244C1242.9 14 1242 13.1046 1242 12V3C1242 1.34315 1243.34 0 1245 0H1384C1391.73 0 1398 6.26801 1398 14V14Z" fill="#0CBAFF"/>
</svg>
