<svg width="1398" height="74" viewBox="0 0 1398 74" fill="none" xmlns="http://www.w3.org/2000/svg">
<rect width="1060" height="13" transform="matrix(1 0 0 -1 169 62)" fill="#0CBAFF"/>
<rect width="111" height="19" transform="matrix(1 0 0 -1 643 74)" fill="#0CBAFF"/>
<path d="M642.5 74L648.995 62H636.005L642.5 74Z" fill="#0CBAFF"/>
<path d="M754.5 74L760.995 62H748.005L754.5 74Z" fill="#0CBAFF"/>
<rect width="31" height="16.4267" transform="matrix(0.775639 0.631177 0.631177 -0.775639 145 42.4335)" fill="#0CBAFF"/>
<rect x="1253" y="42" width="31.5692" height="16.3289" transform="rotate(140.863 1253 42)" fill="#0CBAFF"/>
<path d="M0 43H154C155.105 43 156 42.1046 156 41V31C156 29.8954 155.105 29 154 29H14C6.26802 29 0 35.268 0 43V43Z" fill="#0CBAFF"/>
<path d="M1398 42H1244C1242.9 42 1242 41.1046 1242 40V31C1242 29.3431 1243.34 28 1245 28H1384C1391.73 28 1398 34.268 1398 42V42Z" fill="#0CBAFF"/>
<path d="M585.81 34.27C583.99 34.27 582.68 33.93 581.88 33.25C581.08 32.55 580.68 31.37 580.68 29.71V19.93C580.68 18.27 581.08 17.1 581.88 16.42C582.68 15.72 583.99 15.37 585.81 15.37H591.45V18.4H584.76C584.48 18.4 584.34 18.54 584.34 18.82V30.82C584.34 31.1 584.48 31.24 584.76 31.24H591.45V34.27H585.81ZM593.746 19.93C593.746 18.27 594.146 17.1 594.946 16.42C595.746 15.72 597.056 15.37 598.876 15.37H602.146C603.986 15.37 605.306 15.72 606.106 16.42C606.906 17.1 607.306 18.27 607.306 19.93V29.71C607.306 31.37 606.906 32.55 606.106 33.25C605.306 33.93 603.986 34.27 602.146 34.27H598.876C597.056 34.27 595.746 33.93 594.946 33.25C594.146 32.55 593.746 31.37 593.746 29.71V19.93ZM597.826 18.4C597.546 18.4 597.406 18.54 597.406 18.82V30.82C597.406 31.1 597.546 31.24 597.826 31.24H603.256C603.516 31.24 603.646 31.1 603.646 30.82V18.82C603.646 18.54 603.516 18.4 603.256 18.4H597.826ZM620.01 15.37C621.51 15.37 622.61 15.67 623.31 16.27C624.01 16.87 624.36 17.93 624.36 19.45V34H620.73V18.73C620.73 18.45 620.6 18.31 620.34 18.31H615.09C614.81 18.31 614.67 18.45 614.67 18.73L614.7 34H611.1L611.04 15.64H614.28L614.55 17.5C614.95 16.08 616.06 15.37 617.88 15.37H620.01ZM637 18.49H632.71V30.55C632.71 30.81 632.84 30.94 633.1 30.94H637V34H634.21C632.41 34 631.1 33.65 630.28 32.95C629.48 32.25 629.08 31.08 629.08 29.44V18.49H626.92V15.64H629.08V10.96H632.71V15.64H637V18.49ZM644.054 34.21C642.234 34.21 640.914 33.86 640.094 33.16C639.294 32.46 638.894 31.28 638.894 29.62V19.75C638.894 18.09 639.244 16.95 639.944 16.33C640.644 15.69 641.844 15.37 643.544 15.37H647.234C648.954 15.37 650.174 15.69 650.894 16.33C651.634 16.95 652.004 18.09 652.004 19.75V26.92H642.554V30.76C642.554 31.02 642.684 31.15 642.944 31.15H651.524V34.21H644.054ZM642.944 18.31C642.684 18.31 642.554 18.45 642.554 18.73V24.28H648.374V18.73C648.374 18.45 648.244 18.31 647.984 18.31H642.944ZM653.713 34L656.443 27.97C656.843 26.99 657.203 26.25 657.523 25.75C657.843 25.25 658.273 24.9 658.813 24.7C658.413 24.46 658.063 24.1 657.763 23.62C657.483 23.12 657.173 22.45 656.833 21.61L654.373 15.64H658.033L660.943 22.9C660.983 23.04 661.023 23.14 661.063 23.2C661.123 23.26 661.223 23.29 661.363 23.29H662.503C662.723 23.29 662.873 23.17 662.953 22.93L665.893 15.64H669.433L666.913 21.61C666.593 22.47 666.293 23.14 666.013 23.62C665.733 24.1 665.383 24.46 664.963 24.7C665.543 24.9 665.993 25.26 666.313 25.78C666.633 26.28 667.003 27.01 667.423 27.97L670.153 34H666.343L663.193 26.68C663.113 26.42 662.983 26.29 662.803 26.29H660.943C660.803 26.29 660.703 26.32 660.643 26.38C660.603 26.44 660.563 26.53 660.523 26.65L657.463 34H653.713ZM681.209 18.49H676.919V30.55C676.919 30.81 677.049 30.94 677.309 30.94H681.209V34H678.419C676.619 34 675.309 33.65 674.489 32.95C673.689 32.25 673.289 31.08 673.289 29.44V18.49H671.129V15.64H673.289V10.96H676.919V15.64H681.209V18.49ZM698.774 15.37C699.954 15.37 700.884 15.55 701.564 15.91C702.244 16.27 702.704 16.88 702.944 17.74C703.304 16.16 704.444 15.37 706.364 15.37H708.044C709.564 15.37 710.664 15.67 711.344 16.27C712.044 16.87 712.394 17.93 712.394 19.45V34H708.764V18.73C708.764 18.45 708.634 18.31 708.374 18.31H703.544C703.284 18.31 703.154 18.45 703.154 18.73L703.124 18.85C703.144 19.05 703.154 19.25 703.154 19.45V34H699.494V18.73C699.494 18.45 699.364 18.31 699.104 18.31H694.214C693.954 18.31 693.824 18.45 693.824 18.73L693.884 34H690.224L690.194 15.64H693.434L693.704 17.5C694.104 16.08 695.214 15.37 697.034 15.37H698.774ZM719.371 34.27C717.871 34.27 716.771 33.98 716.071 33.4C715.391 32.8 715.051 31.74 715.051 30.22V27.52C715.051 25.92 715.411 24.81 716.131 24.19C716.871 23.55 718.091 23.23 719.791 23.23H724.501V19.06C724.501 18.8 724.371 18.67 724.111 18.67L716.161 18.7V15.61H723.301C725.021 15.59 726.261 15.92 727.021 16.6C727.781 17.26 728.161 18.42 728.161 20.08V34H724.891L724.591 31.93C724.431 32.71 724.081 33.3 723.541 33.7C723.021 34.08 722.271 34.27 721.291 34.27H719.371ZM724.501 31.33V25.87H719.041C718.781 25.87 718.651 26 718.651 26.26V30.91C718.651 31.19 718.781 31.33 719.041 31.33H724.501ZM741.189 37.93V32.26C740.989 32.94 740.629 33.45 740.109 33.79C739.589 34.11 738.879 34.27 737.979 34.27H735.879C734.379 34.27 733.279 33.98 732.579 33.4C731.899 32.8 731.559 31.74 731.559 30.22V19.81C731.559 18.21 731.919 17.09 732.639 16.45C733.379 15.81 734.599 15.51 736.299 15.55L744.849 15.64V36.82C744.849 38.48 744.439 39.66 743.619 40.36C742.819 41.06 741.519 41.41 739.719 41.41H732.129V38.35H740.799C741.059 38.35 741.189 38.21 741.189 37.93ZM735.549 31.33H740.799C741.059 31.33 741.189 31.19 741.189 30.91V18.61L735.549 18.58C735.289 18.58 735.159 18.71 735.159 18.97V30.91C735.159 31.19 735.289 31.33 735.549 31.33ZM757.53 15.37C759.03 15.37 760.13 15.67 760.83 16.27C761.53 16.87 761.88 17.93 761.88 19.45V34H758.25V18.73C758.25 18.45 758.12 18.31 757.86 18.31H752.61C752.33 18.31 752.19 18.45 752.19 18.73L752.22 34H748.62L748.56 15.64H751.8L752.07 17.5C752.47 16.08 753.58 15.37 755.4 15.37H757.53ZM765.97 12.37V9.01H769.63V12.37H765.97ZM765.97 34V15.64H769.63V34H765.97ZM778.998 11.5C778.738 11.5 778.608 11.63 778.608 11.89V15.64H783.168V18.49H778.608V34H774.978V18.49H772.848V15.64H774.978V12.91C774.978 11.25 775.358 10.09 776.118 9.43C776.878 8.75 778.108 8.42 779.808 8.44H783.828V11.5H778.998ZM785.628 12.37V9.01H789.288V12.37H785.628ZM785.628 34V15.64H789.288V34H785.628ZM798.536 34.21C796.716 34.21 795.396 33.86 794.576 33.16C793.776 32.46 793.376 31.28 793.376 29.62V19.75C793.376 18.09 793.726 16.95 794.426 16.33C795.126 15.69 796.326 15.37 798.026 15.37H801.716C803.436 15.37 804.656 15.69 805.376 16.33C806.116 16.95 806.486 18.09 806.486 19.75V26.92H797.036V30.76C797.036 31.02 797.166 31.15 797.426 31.15H806.006V34.21H798.536ZM797.426 18.31C797.166 18.31 797.036 18.45 797.036 18.73V24.28H802.856V18.73C802.856 18.45 802.726 18.31 802.466 18.31H797.426ZM818.575 15.37V18.31H814.045C813.765 18.31 813.625 18.45 813.625 18.73L813.655 34H810.055L809.995 15.64H813.235L813.505 17.5C813.905 16.08 815.015 15.37 816.835 15.37H818.575Z" fill="#0CBAFF"/>
</svg>
