<svg width="200" height="237" viewBox="0 0 200 237" fill="none" xmlns="http://www.w3.org/2000/svg">
<path d="M10.5 0L10.9336 6.20273L12.7572 0.233794L11.7806 6.38029L14.9088 0.924246L12.5677 6.7271L16.8543 2.03907L13.2581 7.22694L18.5027 3.52614L13.8196 7.85646L19.7769 5.31592L14.2258 8.5862L20.6173 7.32472L14.4578 9.38205L20.9846 9.45861L14.5048 10.2068L20.8617 11.6178L14.3645 11.0219L20.2543 13.7014L14.0435 11.7892L19.1907 15.6119L13.5568 12.4728L17.7208 17.26L12.9271 13.0408L15.9133 18.5686L12.184 13.4666L13.8527 19.4765L11.3622 13.7304L11.6353 19.9414L10.5 13.8197L9.36475 19.9414L9.63783 13.7304L7.14733 19.4765L8.81597 13.4666L5.08668 18.5686L8.07286 13.0408L3.27916 17.26L7.44324 12.4728L1.80927 15.6119L6.95655 11.7892L0.745745 13.7014L6.63554 11.0219L0.138322 11.6178L6.49524 10.2068L0.015399 9.45861L6.54219 9.38205L0.382725 7.32472L6.77421 8.5862L1.22312 5.31592L7.18043 7.85646L2.4973 3.52614L7.74188 7.22694L4.14567 2.03907L8.4323 6.7271L6.09116 0.924246L9.2194 6.38029L8.24281 0.233794L10.0664 6.20273L10.5 0Z" fill="#0CBAFF"/>
<path d="M189.5 178L189.934 184.203L191.757 178.234L190.781 184.38L193.909 178.924L191.568 184.727L195.854 180.039L192.258 185.227L197.503 181.526L192.82 185.856L198.777 183.316L193.226 186.586L199.617 185.325L193.458 187.382L199.985 187.459L193.505 188.207L199.862 189.618L193.364 189.022L199.254 191.701L193.043 189.789L198.191 193.612L192.557 190.473L196.721 195.26L191.927 191.041L194.913 196.569L191.184 191.467L192.853 197.477L190.362 191.73L190.635 197.941L189.5 191.82L188.365 197.941L188.638 191.73L186.147 197.477L187.816 191.467L184.087 196.569L187.073 191.041L182.279 195.26L186.443 190.473L180.809 193.612L185.957 189.789L179.746 191.701L185.636 189.022L179.138 189.618L185.495 188.207L179.015 187.459L185.542 187.382L179.383 185.325L185.774 186.586L180.223 183.316L186.18 185.856L181.497 181.526L186.742 185.227L183.146 180.039L187.432 184.727L185.091 178.924L188.219 184.38L187.243 178.234L189.066 184.203L189.5 178Z" fill="#0CBAFF"/>
<path d="M31.5 66L31.6858 68.4811L32.4674 66.0935L32.0488 68.5521L33.3895 66.3697L32.3862 68.6908L34.2233 66.8156L32.6821 68.8908L34.9297 67.4105L32.9227 69.1426L35.4758 68.1264L33.0968 69.4345L35.836 68.9299L33.1962 69.7528L35.9934 69.7834L33.2163 70.0827L35.9407 70.6471L33.1562 70.4087L35.6804 71.4806L33.0186 70.7157L35.2246 72.2447L32.81 70.9891L34.5946 72.904L32.5402 71.2163L33.82 73.4274L32.2217 71.3867L32.9369 73.7906L31.8695 71.4921L31.9865 73.9766L31.5 71.5279L31.0135 73.9766L31.1305 71.4921L30.0631 73.7906L30.7783 71.3867L29.18 73.4274L30.4598 71.2163L28.4054 72.904L30.19 70.9891L27.7754 72.2447L29.9814 70.7157L27.3196 71.4806L29.8438 70.4087L27.0593 70.6471L29.7837 70.0827L27.0066 69.7834L29.8038 69.7528L27.164 68.9299L29.9032 69.4345L27.5242 68.1264L30.0773 69.1426L28.0703 67.4105L30.3179 68.8908L28.7767 66.8156L30.6138 68.6908L29.6105 66.3697L30.9512 68.5521L30.5326 66.0935L31.3142 68.4811L31.5 66Z" fill="#0CBAFF"/>
<path d="M54 82L54.2478 85.7216L55.2898 82.1403L54.7318 85.8282L56.5193 82.5545L55.1815 86.0363L57.631 83.2234L55.5761 86.3362L58.573 84.1157L55.8969 86.7139L59.3011 85.1895L56.129 87.1517L59.7813 86.3948L56.2616 87.6292L59.9912 87.6752L56.2884 88.1241L59.921 88.9707L56.2083 88.6131L59.5739 90.2208L56.0248 89.0735L58.9661 91.3671L55.7467 89.4837L58.1262 92.356L55.3869 89.8245L57.0933 93.1411L54.9623 90.08L55.9158 93.6859L54.4927 90.2382L54.6487 93.9648L54 90.2918L53.3513 93.9648L53.5073 90.2382L52.0842 93.6859L53.0377 90.08L50.9067 93.1411L52.6131 89.8245L49.8738 92.356L52.2533 89.4837L49.0339 91.3671L51.9752 89.0735L48.4261 90.2208L51.7917 88.6131L48.079 88.9707L51.7116 88.1241L48.0088 87.6752L51.7384 87.6292L48.2187 86.3948L51.871 87.1517L48.6989 85.1895L52.1031 86.7139L49.427 84.1157L52.4239 86.3362L50.369 83.2234L52.8185 86.0363L51.4807 82.5545L53.2682 85.8282L52.7102 82.1403L53.7522 85.7216L54 82Z" fill="#0CBAFF"/>
<path d="M120.5 66L120.686 68.7912L121.467 66.1052L121.049 68.8711L122.39 66.4159L121.386 69.0272L123.223 66.9176L121.682 69.2521L123.93 67.5868L121.923 69.5354L124.476 68.3922L122.097 69.8638L124.836 69.2961L122.196 70.2219L124.993 70.2564L122.216 70.5931L124.941 71.228L122.156 70.9598L124.68 72.1656L122.019 71.3051L124.225 73.0253L121.81 71.6128L123.595 73.767L121.54 71.8684L122.82 74.3559L121.222 72.06L121.937 74.7644L120.87 72.1787L120.987 74.9736L120.5 72.2188L120.013 74.9736L120.13 72.1787L119.063 74.7644L119.778 72.06L118.18 74.3559L119.46 71.8684L117.405 73.767L119.19 71.6128L116.775 73.0253L118.981 71.3051L116.32 72.1656L118.844 70.9598L116.059 71.228L118.784 70.5931L116.007 70.2564L118.804 70.2219L116.164 69.2961L118.903 69.8638L116.524 68.3922L119.077 69.5354L117.07 67.5868L119.318 69.2521L117.777 66.9176L119.614 69.0272L118.61 66.4159L119.951 68.8711L119.533 66.1052L120.314 68.7912L120.5 66Z" fill="#0CBAFF"/>
<path d="M71 128L71.1239 129.861L71.6449 128.07L71.3659 129.914L72.2597 128.277L71.5908 130.018L72.8155 128.612L71.788 130.168L73.2865 129.058L71.9484 130.357L73.6505 129.595L72.0645 130.576L73.8906 130.197L72.1308 130.815L73.9956 130.838L72.1442 131.062L73.9605 131.485L72.1041 131.307L73.7869 132.11L72.0124 131.537L73.4831 132.684L71.8734 131.742L73.0631 133.178L71.6935 131.912L72.5467 133.571L71.4812 132.04L71.9579 133.843L71.2463 132.119L71.3244 133.982L71 132.146L70.6756 133.982L70.7537 132.119L70.0421 133.843L70.5188 132.04L69.4533 133.571L70.3065 131.912L68.9369 133.178L70.1266 131.742L68.5169 132.684L69.9876 131.537L68.2131 132.11L69.8959 131.307L68.0395 131.485L69.8558 131.062L68.0044 130.838L69.8692 130.815L68.1093 130.197L69.9355 130.576L68.3495 129.595L70.0516 130.357L68.7135 129.058L70.212 130.168L69.1845 128.612L70.4092 130.018L69.7403 128.277L70.6341 129.914L70.3551 128.07L70.8761 129.861L71 128Z" fill="#0CBAFF"/>
<path d="M62 168L62.2065 170.791L63.0749 168.105L62.6098 170.871L64.0994 168.416L62.9846 171.027L65.0259 168.918L63.3134 171.252L65.8108 169.587L63.5807 171.535L66.4176 170.392L63.7742 171.864L66.8177 171.296L63.8847 172.222L66.9927 172.256L63.907 172.593L66.9341 173.228L63.8402 172.96L66.6449 174.166L63.6874 173.305L66.1384 175.025L63.4556 173.613L65.4385 175.767L63.1558 173.868L64.5778 176.356L62.8019 174.06L63.5965 176.764L62.4106 174.179L62.5406 176.974L62 174.219L61.4594 176.974L61.5894 174.179L60.4035 176.764L61.1981 174.06L59.4222 176.356L60.8442 173.868L58.5615 175.767L60.5444 173.613L57.8616 175.025L60.3126 173.305L57.3551 174.166L60.1598 172.96L57.0659 173.228L60.093 172.593L57.0073 172.256L60.1153 172.222L57.1823 171.296L60.2258 171.864L57.5824 170.392L60.4193 171.535L58.1892 169.587L60.6866 171.252L58.9741 168.918L61.0154 171.027L59.9006 168.416L61.3902 170.871L60.9251 168.105L61.7935 170.791L62 168Z" fill="#0CBAFF"/>
<path d="M144 131L144.124 132.861L144.645 131.07L144.366 132.914L145.26 131.277L144.591 133.018L145.816 131.612L144.788 133.168L146.286 132.058L144.948 133.357L146.651 132.595L145.065 133.576L146.891 133.197L145.131 133.815L146.996 133.838L145.144 134.062L146.96 134.485L145.104 134.307L146.787 135.11L145.012 134.537L146.483 135.684L144.873 134.742L146.063 136.178L144.693 134.912L145.547 136.571L144.481 135.04L144.958 136.843L144.246 135.119L144.324 136.982L144 135.146L143.676 136.982L143.754 135.119L143.042 136.843L143.519 135.04L142.453 136.571L143.307 134.912L141.937 136.178L143.127 134.742L141.517 135.684L142.988 134.537L141.213 135.11L142.896 134.307L141.04 134.485L142.856 134.062L141.004 133.838L142.869 133.815L141.109 133.197L142.935 133.576L141.349 132.595L143.052 133.357L141.714 132.058L143.212 133.168L142.184 131.612L143.409 133.018L142.74 131.277L143.634 132.914L143.355 131.07L143.876 132.861L144 131Z" fill="#0CBAFF"/>
<path d="M159.5 150L159.603 151.551L160.037 150.058L159.805 151.595L160.55 150.231L159.992 151.682L161.013 150.51L160.157 151.807L161.405 150.882L160.29 151.964L161.709 151.329L160.387 152.147L161.909 151.831L160.442 152.346L161.996 152.365L160.454 152.552L161.967 152.904L160.42 152.755L161.822 153.425L160.344 152.947L161.569 153.903L160.228 153.118L161.219 154.315L160.078 153.26L160.789 154.642L159.901 153.367L160.298 154.869L159.705 153.433L159.77 154.985L159.5 153.455L159.23 154.985L159.295 153.433L158.702 154.869L159.099 153.367L158.211 154.642L158.922 153.26L157.781 154.315L158.772 153.118L157.431 153.903L158.656 152.947L157.178 153.425L158.58 152.755L157.033 152.904L158.546 152.552L157.004 152.365L158.558 152.346L157.091 151.831L158.613 152.147L157.291 151.329L158.71 151.964L157.595 150.882L158.843 151.807L157.987 150.51L159.008 151.682L158.45 150.231L159.195 151.595L158.963 150.058L159.397 151.551L159.5 150Z" fill="#0CBAFF"/>
<path d="M178.5 161L178.603 162.551L179.037 161.058L178.805 162.595L179.55 161.231L178.992 162.682L180.013 161.51L179.157 162.807L180.405 161.882L179.29 162.964L180.709 162.329L179.387 163.147L180.909 162.831L179.442 163.346L180.996 163.365L179.454 163.552L180.967 163.904L179.42 163.755L180.822 164.425L179.344 163.947L180.569 164.903L179.228 164.118L180.219 165.315L179.078 164.26L179.789 165.642L178.901 164.367L179.298 165.869L178.705 164.433L178.77 165.985L178.5 164.455L178.23 165.985L178.295 164.433L177.702 165.869L178.099 164.367L177.211 165.642L177.922 164.26L176.781 165.315L177.772 164.118L176.431 164.903L177.656 163.947L176.178 164.425L177.58 163.755L176.033 163.904L177.546 163.552L176.004 163.365L177.558 163.346L176.091 162.831L177.613 163.147L176.291 162.329L177.71 162.964L176.595 161.882L177.843 162.807L176.987 161.51L178.008 162.682L177.45 161.231L178.195 162.595L177.963 161.058L178.397 162.551L178.5 161Z" fill="#0CBAFF"/>
<path d="M103.5 202L103.603 203.551L104.037 202.058L103.805 203.595L104.55 202.231L103.992 203.682L105.013 202.51L104.157 203.807L105.405 202.882L104.29 203.964L105.709 203.329L104.387 204.147L105.909 203.831L104.442 204.346L105.996 204.365L104.454 204.552L105.967 204.904L104.42 204.755L105.822 205.425L104.344 204.947L105.569 205.903L104.228 205.118L105.219 206.315L104.078 205.26L104.789 206.642L103.901 205.367L104.298 206.869L103.705 205.433L103.77 206.985L103.5 205.455L103.23 206.985L103.295 205.433L102.702 206.869L103.099 205.367L102.211 206.642L102.922 205.26L101.781 206.315L102.772 205.118L101.431 205.903L102.656 204.947L101.178 205.425L102.58 204.755L101.033 204.904L102.546 204.552L101.004 204.365L102.558 204.346L101.091 203.831L102.613 204.147L101.291 203.329L102.71 203.964L101.595 202.882L102.843 203.807L101.987 202.51L103.008 203.682L102.45 202.231L103.195 203.595L102.963 202.058L103.397 203.551L103.5 202Z" fill="#0CBAFF"/>
<path d="M124 231L124.124 232.861L124.645 231.07L124.366 232.914L125.26 231.277L124.591 233.018L125.816 231.612L124.788 233.168L126.286 232.058L124.948 233.357L126.651 232.595L125.065 233.576L126.891 233.197L125.131 233.815L126.996 233.838L125.144 234.062L126.96 234.485L125.104 234.307L126.787 235.11L125.012 234.537L126.483 235.684L124.873 234.742L126.063 236.178L124.693 234.912L125.547 236.571L124.481 235.04L124.958 236.843L124.246 235.119L124.324 236.982L124 235.146L123.676 236.982L123.754 235.119L123.042 236.843L123.519 235.04L122.453 236.571L123.307 234.912L121.937 236.178L123.127 234.742L121.517 235.684L122.988 234.537L121.213 235.11L122.896 234.307L121.04 234.485L122.856 234.062L121.004 233.838L122.869 233.815L121.109 233.197L122.935 233.576L121.349 232.595L123.052 233.357L121.714 232.058L123.212 233.168L122.184 231.612L123.409 233.018L122.74 231.277L123.634 232.914L123.355 231.07L123.876 232.861L124 231Z" fill="#0CBAFF"/>
<path d="M167.5 11L167.686 13.7912L168.467 11.1052L168.049 13.8711L169.39 11.4159L168.386 14.0272L170.223 11.9176L168.682 14.2521L170.93 12.5868L168.923 14.5354L171.476 13.3922L169.097 14.8638L171.836 14.2961L169.196 15.2219L171.993 15.2564L169.216 15.5931L171.941 16.228L169.156 15.9598L171.68 17.1656L169.019 16.3051L171.225 18.0253L168.81 16.6128L170.595 18.767L168.54 16.8684L169.82 19.3559L168.222 17.06L168.937 19.7644L167.87 17.1787L167.987 19.9736L167.5 17.2188L167.013 19.9736L167.13 17.1787L166.063 19.7644L166.778 17.06L165.18 19.3559L166.46 16.8684L164.405 18.767L166.19 16.6128L163.775 18.0253L165.981 16.3051L163.32 17.1656L165.844 15.9598L163.059 16.228L165.784 15.5931L163.007 15.2564L165.804 15.2219L163.164 14.2961L165.903 14.8638L163.524 13.3922L166.077 14.5354L164.07 12.5868L166.318 14.2521L164.777 11.9176L166.614 14.0272L165.61 11.4159L166.951 13.8711L166.533 11.1052L167.314 13.7912L167.5 11Z" fill="#0CBAFF"/>
<path d="M10.5 12L31.5 70L54 88.5L120.5 70L168 16" stroke="#0CBAFF" stroke-width="2"/>
<path d="M54.5 88.5L71.5 131L62.5 172L144 134L120 69.5" stroke="#0CBAFF" stroke-width="2"/>
<path d="M62.5 172L95.5 211.5L103.5 204.5L124 234.5" stroke="#0CBAFF" stroke-width="2"/>
<path d="M143.5 134L159.5 152.5L179 163.5L189.5 189.5" stroke="#0CBAFF" stroke-width="2"/>
</svg>
